<svg version="1.1" xmlns="http://www.w3.org/2000/svg" viewBox="0 0 2210.8784698027803 843.7300315619195" width="2210.8784698027803" height="843.7300315619195" filter="invert(93%) hue-rotate(180deg)">
  <!-- svg-source:excalidraw -->
  
  <defs>
    <style class="style-fonts">
      @font-face {
        font-family: "Virgil";
        src: url("https://excalidraw.com/Virgil.woff2");
      }
      @font-face {
        font-family: "Cascadia";
        src: url("https://excalidraw.com/Cascadia.woff2");
      }
      @font-face {
        font-family: "Assistant";
        src: url("https://excalidraw.com/Assistant-Regular.woff2");
      }
    </style>
    
  </defs>
  <rect x="0" y="0" width="2210.8784698027803" height="843.7300315619195" fill="#ffffff"></rect><g stroke-linecap="round" transform="translate(10 106.30664917913828) rotate(0 251.4285496303014 315.42856488909047)"><path d="M32 0 C181.97 -1.22, 333.61 -0.51, 470.86 0 M32 0 C129.43 -1.95, 226.19 -1.49, 470.86 0 M470.86 0 C490.43 -0.07, 501.4 12.11, 502.86 32 M470.86 0 C490.7 1.42, 504.89 11.36, 502.86 32 M502.86 32 C501.88 255.62, 500.56 479.19, 502.86 598.86 M502.86 32 C501.41 164.42, 501.84 297.39, 502.86 598.86 M502.86 598.86 C503.52 621.47, 492.52 631.47, 470.86 630.86 M502.86 598.86 C503.98 618.41, 493.96 631.48, 470.86 630.86 M470.86 630.86 C329.96 630.68, 189.93 630.44, 32 630.86 M470.86 630.86 C380.14 630.53, 288.87 630.18, 32 630.86 M32 630.86 C10.4 632.4, 1.61 618.23, 0 598.86 M32 630.86 C11.52 630.37, 0.03 618.16, 0 598.86 M0 598.86 C1.55 479.71, 0.65 359.93, 0 32 M0 598.86 C-0.38 480.9, 0.01 362.32, 0 32 M0 32 C-0.78 8.92, 10.05 -0.15, 32 0 M0 32 C1.79 10.65, 11.53 -1.24, 32 0" stroke="#1e1e1e" stroke-width="2" fill="none"></path></g><g transform="translate(44.28567068917437 172.59233294727437) rotate(0 195.52163696289062 123.07141985212047)"><text x="0" y="34.49938041294639" font-family="Virgil, Segoe UI Emoji" font-size="39.38285435267853px" fill="#1e1e1e" text-anchor="start" style="white-space: pre;" direction="ltr" dominant-baseline="alphabetic">Nombre del producto</text><text x="0" y="83.72794835379455" font-family="Virgil, Segoe UI Emoji" font-size="39.38285435267853px" fill="#1e1e1e" text-anchor="start" style="white-space: pre;" direction="ltr" dominant-baseline="alphabetic">Descripción</text><text x="0" y="132.9565162946427" font-family="Virgil, Segoe UI Emoji" font-size="39.38285435267853px" fill="#1e1e1e" text-anchor="start" style="white-space: pre;" direction="ltr" dominant-baseline="alphabetic">Precio</text><text x="0" y="182.18508423549085" font-family="Virgil, Segoe UI Emoji" font-size="39.38285435267853px" fill="#1e1e1e" text-anchor="start" style="white-space: pre;" direction="ltr" dominant-baseline="alphabetic">Categoría</text><text x="0" y="231.413652176339" font-family="Virgil, Segoe UI Emoji" font-size="39.38285435267853px" fill="#1e1e1e" text-anchor="start" style="white-space: pre;" direction="ltr" dominant-baseline="alphabetic">Imagen</text></g><g stroke-linecap="round" transform="translate(606.285414922806 119.64001520987631) rotate(0 320.6666564941406 357.0450081760216)"><path d="M32 0 C230.64 -1.44, 429.92 -1.54, 609.33 0 M32 0 C178.46 1.41, 324.81 1.68, 609.33 0 M609.33 0 C631.95 -1.94, 639.68 10.81, 641.33 32 M609.33 0 C628.6 2.06, 642.62 11.31, 641.33 32 M641.33 32 C642.46 175.19, 641.96 319.31, 641.33 682.09 M641.33 32 C641.79 272.22, 641.36 512.8, 641.33 682.09 M641.33 682.09 C640.51 703.45, 631.51 713.46, 609.33 714.09 M641.33 682.09 C640.02 703.53, 630.28 712.05, 609.33 714.09 M609.33 714.09 C481.26 713.86, 351.95 713.91, 32 714.09 M609.33 714.09 C484.64 715.01, 358.76 714.93, 32 714.09 M32 714.09 C10.66 715.59, 0.39 704.11, 0 682.09 M32 714.09 C10.94 713.01, -2.22 702.57, 0 682.09 M0 682.09 C0.23 527.82, 0.4 372.72, 0 32 M0 682.09 C1.2 449.62, 1.59 216.29, 0 32 M0 32 C-1.45 9.98, 10.8 -0.22, 32 0 M0 32 C-1.76 9.04, 8.43 1.3, 32 0" stroke="#1e1e1e" stroke-width="2" fill="none"></path></g><g stroke-linecap="round" transform="translate(655.0885967849354 271.70612739166154) rotate(0 98.66668701171875 140.6666819254558)"><path d="M32 0 C76.84 -1.62, 117.81 -1.85, 165.33 0 M32 0 C85.19 -1.08, 138.79 -0.42, 165.33 0 M165.33 0 C186.41 0.53, 196.05 12.28, 197.33 32 M165.33 0 C187.54 0.26, 199.42 8.53, 197.33 32 M197.33 32 C197.76 99.38, 198.44 166.66, 197.33 249.33 M197.33 32 C199.12 91.16, 198.71 150.08, 197.33 249.33 M197.33 249.33 C198 268.74, 186.6 280.03, 165.33 281.33 M197.33 249.33 C197.37 270.17, 187.28 280.36, 165.33 281.33 M165.33 281.33 C125.68 280.61, 88.84 281.5, 32 281.33 M165.33 281.33 C123.37 281.09, 82.23 281.44, 32 281.33 M32 281.33 C8.72 281.09, 1.68 271.09, 0 249.33 M32 281.33 C11 282.62, 1.34 269.4, 0 249.33 M0 249.33 C-0.63 197.77, -2.26 148.04, 0 32 M0 249.33 C0.59 177.19, 1.71 104.31, 0 32 M0 32 C1.75 9.84, 11.44 -0.76, 32 0 M0 32 C-1.54 11.61, 9.02 1.61, 32 0" stroke="#1e1e1e" stroke-width="2" fill="none"></path></g><g stroke-linecap="round" transform="translate(940.0885967849354 266.37277371327673) rotate(0 98.66668701171875 128.66668701171875)"><path d="M32 0 C77.56 2.26, 126.93 -1.3, 165.33 0 M32 0 C76.23 -0.79, 121.39 -0.48, 165.33 0 M165.33 0 C188.13 1.22, 195.95 8.76, 197.33 32 M165.33 0 C187.79 0.98, 198.15 10.26, 197.33 32 M197.33 32 C196.05 99.42, 194.85 169.5, 197.33 225.33 M197.33 32 C199.19 107.28, 198.98 180.28, 197.33 225.33 M197.33 225.33 C197.96 248.49, 188.42 257.55, 165.33 257.33 M197.33 225.33 C199.17 244.76, 186.87 255.97, 165.33 257.33 M165.33 257.33 C118.03 257.03, 73.55 257.19, 32 257.33 M165.33 257.33 C123.49 258.03, 80.52 258.1, 32 257.33 M32 257.33 C10.47 256.74, -0.11 247.2, 0 225.33 M32 257.33 C9.88 259.13, -2.17 246.01, 0 225.33 M0 225.33 C-0.36 165.25, 1.03 108.05, 0 32 M0 225.33 C0.96 178.52, 0.7 129.21, 0 32 M0 32 C0.14 10.79, 10.05 1.81, 32 0 M0 32 C-1.05 8.94, 9.99 -0.75, 32 0" stroke="#1e1e1e" stroke-width="2" fill="none"></path></g><g stroke-linecap="round" transform="translate(655.0885967849354 563.0394403799428) rotate(0 98.66668701171875 128.66668701171875)"><path d="M32 0 C70.84 0.99, 112.16 -0.09, 165.33 0 M32 0 C67.83 -1.66, 101.5 -0.48, 165.33 0 M165.33 0 C187.52 0.71, 196.98 11.74, 197.33 32 M165.33 0 C184.95 1.81, 197.52 9.52, 197.33 32 M197.33 32 C199.43 80.43, 198.9 129.65, 197.33 225.33 M197.33 32 C197.41 95.8, 196.6 158.65, 197.33 225.33 M197.33 225.33 C195.68 246.85, 185.48 258.35, 165.33 257.33 M197.33 225.33 C197.01 246.91, 186.09 256.82, 165.33 257.33 M165.33 257.33 C114.52 257.68, 63.12 258.92, 32 257.33 M165.33 257.33 C113.38 257.15, 62.29 256.86, 32 257.33 M32 257.33 C12.23 255.45, -0.57 246.82, 0 225.33 M32 257.33 C10.87 255.33, -0.22 245.93, 0 225.33 M0 225.33 C-2.1 155.9, -0.7 87.71, 0 32 M0 225.33 C1.85 163.87, 2.69 102.58, 0 32 M0 32 C-1.5 10.08, 10.01 0.7, 32 0 M0 32 C0.23 11.42, 11.28 -0.64, 32 0" stroke="#1e1e1e" stroke-width="2" fill="none"></path></g><g stroke-linecap="round" transform="translate(925.0885967849354 558.7061985993446) rotate(0 98.66668701171875 128.66668701171875)"><path d="M32 0 C64.49 1.94, 96.17 -0.9, 165.33 0 M32 0 C59.67 -0.74, 87.17 -1.31, 165.33 0 M165.33 0 C188.24 0.16, 196.34 9.62, 197.33 32 M165.33 0 C187.44 1.95, 198.99 11.28, 197.33 32 M197.33 32 C198.26 99.46, 200.95 167.42, 197.33 225.33 M197.33 32 C198.96 91.52, 199.38 152.09, 197.33 225.33 M197.33 225.33 C197.54 246.17, 186.22 259.15, 165.33 257.33 M197.33 225.33 C197 247.16, 188.15 257.41, 165.33 257.33 M165.33 257.33 C113.47 258.3, 58.11 258.39, 32 257.33 M165.33 257.33 C120.83 258.09, 78.3 258.46, 32 257.33 M32 257.33 C8.92 257.14, -0.64 247.87, 0 225.33 M32 257.33 C12.5 256.1, -0.64 246.86, 0 225.33 M0 225.33 C-3.37 159.34, -1.4 92.44, 0 32 M0 225.33 C0.59 149.53, 1.23 74.49, 0 32 M0 32 C0.66 11.2, 10.11 0.27, 32 0 M0 32 C0.92 11.48, 12.06 1.54, 32 0" stroke="#1e1e1e" stroke-width="2" fill="none"></path></g><g stroke-linecap="round" transform="translate(687.8918904233979 295.03146053621185) rotate(0 62.6666259765625 40.6666692097981)"><path d="M20.33 0 C44.07 0.87, 67.73 -1.37, 105 0 M20.33 0 C48.84 -1.08, 76.95 -1.31, 105 0 M105 0 C119.56 -0.05, 124.58 4.85, 125.33 20.33 M105 0 C116.61 0.77, 126.34 7.37, 125.33 20.33 M125.33 20.33 C123.9 35.31, 125.56 45.58, 125.33 61 M125.33 20.33 C124.85 32.56, 124.14 45.11, 125.33 61 M125.33 61 C124.04 73.64, 120.02 81.75, 105 81.33 M125.33 61 C125.79 72.96, 117.74 83.22, 105 81.33 M105 81.33 C76.32 82.66, 45.04 80.57, 20.33 81.33 M105 81.33 C85.46 80.69, 66.57 80.42, 20.33 81.33 M20.33 81.33 C8.48 80.49, 0.92 74.64, 0 61 M20.33 81.33 C7.38 79.99, 1.78 75.08, 0 61 M0 61 C0.3 47.67, -1.24 35.96, 0 20.33 M0 61 C1.15 52.98, 0.81 43.42, 0 20.33 M0 20.33 C1.81 7.81, 8.65 -0.69, 20.33 0 M0 20.33 C0.9 8.57, 7.87 -0.25, 20.33 0" stroke="#1e1e1e" stroke-width="2" fill="none"></path></g><g transform="translate(737.0285328794525 323.1981297460102) rotate(0 13.529983520507812 12.5)"><text x="13.529983520507812" y="17.52" font-family="Virgil, Segoe UI Emoji" font-size="20px" fill="#1e1e1e" text-anchor="middle" style="white-space: pre;" direction="ltr" dominant-baseline="alphabetic">img</text></g><g transform="translate(687.1045972839538 395.9791602346272) rotate(0 50.44994354248047 25)"><text x="0" y="17.52" font-family="Virgil, Segoe UI Emoji" font-size="20px" fill="#1e1e1e" text-anchor="start" style="white-space: pre;" direction="ltr" dominant-baseline="alphabetic">nombre</text><text x="0" y="42.519999999999996" font-family="Virgil, Segoe UI Emoji" font-size="20px" fill="#1e1e1e" text-anchor="start" style="white-space: pre;" direction="ltr" dominant-baseline="alphabetic">descripción</text></g><g transform="translate(688.4379102722351 447.9791297170491) rotate(0 29.129966735839844 12.5)"><text x="0" y="17.52" font-family="Virgil, Segoe UI Emoji" font-size="20px" fill="#1e1e1e" text-anchor="start" style="white-space: pre;" direction="ltr" dominant-baseline="alphabetic">Precio</text></g><g stroke-linecap="round"><g transform="translate(798.7099486758361 270.70612739166154) rotate(0 331.4859729341333 25.826563039742723)"><path d="M0.37 0.08 C110.65 8.66, 552.17 41.84, 662.79 50.54 M-0.9 -0.92 C109.12 7.85, 550.95 42.97, 661.75 51.49" stroke="#1e1e1e" stroke-width="2" fill="none"></path></g><g transform="translate(798.7099486758361 270.70612739166154) rotate(0 331.4859729341333 25.826563039742723)"><path d="M637.66 58.18 C647.22 55.2, 654.6 54.76, 661.75 51.49 M637.66 58.18 C646.35 55.85, 654 54.15, 661.75 51.49" stroke="#1e1e1e" stroke-width="2" fill="none"></path></g><g transform="translate(798.7099486758361 270.70612739166154) rotate(0 331.4859729341333 25.826563039742723)"><path d="M639 41.13 C647.9 44.79, 654.76 50.98, 661.75 51.49 M639 41.13 C647.12 44.78, 654.3 49.05, 661.75 51.49" stroke="#1e1e1e" stroke-width="2" fill="none"></path></g></g><mask></mask><g transform="translate(1454.5965406340301 330.76203811091546) rotate(0 107.79991149902344 12.5)"><text x="0" y="17.52" font-family="Virgil, Segoe UI Emoji" font-size="20px" fill="#1e1e1e" text-anchor="start" style="white-space: pre;" direction="ltr" dominant-baseline="alphabetic">Precio: ${precio} MXN</text></g><g transform="translate(1488.9225428459376 283.0742551280259) rotate(0 175.4798583984375 12.5)"><text x="0" y="17.52" font-family="Virgil, Segoe UI Emoji" font-size="20px" fill="#1e1e1e" text-anchor="start" style="white-space: pre;" direction="ltr" dominant-baseline="alphabetic">Descripción: {primeras10palabras} ...</text></g><g stroke-linecap="round" transform="translate(665.8825639749239 152.55643037357595) rotate(0 253.89951957418862 33.54269472659348)"><path d="M16.77 0 C148.19 1.54, 279.38 1.19, 491.03 0 M16.77 0 C113.57 0.47, 210.15 -0.1, 491.03 0 M491.03 0 C500.25 -0.8, 507.88 7.56, 507.8 16.77 M491.03 0 C500.09 -0.6, 509.59 3.91, 507.8 16.77 M507.8 16.77 C506.9 24.24, 507.58 29.6, 507.8 50.31 M507.8 16.77 C507.16 24.73, 507.46 33.2, 507.8 50.31 M507.8 50.31 C509.72 61.8, 501.88 68.79, 491.03 67.09 M507.8 50.31 C506.28 62.35, 503.27 67.3, 491.03 67.09 M491.03 67.09 C334.62 67.81, 178.94 68.01, 16.77 67.09 M491.03 67.09 C356.77 67.4, 222.98 67.49, 16.77 67.09 M16.77 67.09 C6.93 65.89, -1.2 61.28, 0 50.31 M16.77 67.09 C5.37 69.14, 1.05 61.13, 0 50.31 M0 50.31 C0.85 38.6, -0.42 28.7, 0 16.77 M0 50.31 C-0.69 41.35, 0.53 33.5, 0 16.77 M0 16.77 C0.37 6.59, 5.99 -1.16, 16.77 0 M0 16.77 C-0.04 4.38, 5.65 0.51, 16.77 0" stroke="#1e1e1e" stroke-width="2" fill="none"></path></g><g transform="translate(701.288730881487 177.71345586141024) rotate(0 99.419921875 12.5)"><text x="0" y="17.52" font-family="Virgil, Segoe UI Emoji" font-size="20px" fill="#1e1e1e" text-anchor="start" style="white-space: pre;" direction="ltr" dominant-baseline="alphabetic">Filtar por categoría</text></g><g transform="translate(933.2923590403507 10) rotate(0 356.03973388671875 12.5)"><text x="0" y="17.52" font-family="Virgil, Segoe UI Emoji" font-size="20px" fill="#1e1e1e" text-anchor="start" style="white-space: pre;" direction="ltr" dominant-baseline="alphabetic">Forma 1: Debe filtar por categoría conforme voy escribiendo en el campo</text></g><g transform="translate(937.0193389434053 56.58707107261398) rotate(0 631.9295654296875 25)"><text x="0" y="17.52" font-family="Virgil, Segoe UI Emoji" font-size="20px" fill="#1e1e1e" text-anchor="start" style="white-space: pre;" direction="ltr" dominant-baseline="alphabetic">Forma 2: El campo debe ser un &lt;select&gt; cuyas opciones sean las categorías que existen actualmente en la lista de productos</text><text x="0" y="42.519999999999996" font-family="Virgil, Segoe UI Emoji" font-size="20px" fill="#1e1e1e" text-anchor="start" style="white-space: pre;" direction="ltr" dominant-baseline="alphabetic"></text></g><g stroke-linecap="round" transform="translate(241.00852555304573 510.3451326569393) rotate(0 112.7406977784799 41.46250036324909)"><path d="M20.73 0 C66.01 -0.4, 114.09 -0.68, 204.75 0 M20.73 0 C69.97 -1.53, 119.51 -1.82, 204.75 0 M204.75 0 C220.4 -0.66, 226.35 6.22, 225.48 20.73 M204.75 0 C219.82 -1.57, 227.09 5.35, 225.48 20.73 M225.48 20.73 C226.6 37.29, 226.51 53.58, 225.48 62.19 M225.48 20.73 C224.31 31.16, 224.47 39.56, 225.48 62.19 M225.48 62.19 C225.7 77.02, 218.8 84.76, 204.75 82.93 M225.48 62.19 C227.05 74.01, 218.7 83.72, 204.75 82.93 M204.75 82.93 C149.32 81.85, 96.2 82.31, 20.73 82.93 M204.75 82.93 C157.91 82.78, 109.77 82.85, 20.73 82.93 M20.73 82.93 C5.1 82.85, 1.26 75.19, 0 62.19 M20.73 82.93 C7 81.91, -1.61 75.33, 0 62.19 M0 62.19 C-1.13 47.52, -0.33 32, 0 20.73 M0 62.19 C-0.25 52.65, 0.44 43.64, 0 20.73 M0 20.73 C0.02 8.68, 7.86 1.47, 20.73 0 M0 20.73 C-0.47 8.28, 8.3 2.26, 20.73 0" stroke="#1e1e1e" stroke-width="2" fill="none"></path></g><g transform="translate(286.66386942145346 551.3417694180853) rotate(0 41.199974060058594 12.5)"><text x="0" y="17.52" font-family="Virgil, Segoe UI Emoji" font-size="20px" fill="#1e1e1e" text-anchor="start" style="white-space: pre;" direction="ltr" dominant-baseline="alphabetic">Guardar</text></g></svg>